<?xml version="1.0" encoding="UTF-8"?>
<!DOCTYPE svg PUBLIC "-//W3C//DTD SVG 1.1//EN" "http://www.w3.org/Graphics/SVG/1.1/DTD/svg11.dtd">
<svg xmlns="http://www.w3.org/2000/svg" version="1.1" width="241px" height="98px" style="shape-rendering:geometricPrecision; text-rendering:geometricPrecision; image-rendering:optimizeQuality; fill-rule:evenodd; clip-rule:evenodd" xmlns:xlink="http://www.w3.org/1999/xlink">
<g><path style="opacity:1" fill="#3c3210" d="M 43.5,6.5 C 39.4659,6.50454 35.4659,6.83787 31.5,7.5C 32.0076,5.76733 32.841,5.434 34,6.5C 36.3333,5.83333 38.6667,5.16667 41,4.5C 41.9947,5.06594 42.828,5.73261 43.5,6.5 Z"/></g>
<g><path style="opacity:1" fill="#2e260e" d="M 46.5,7.5 C 49.5,8.5 51.5,10.5 52.5,13.5C 50.1667,11.8333 48.1667,9.83333 46.5,7.5 Z"/></g>
<g><path style="opacity:1" fill="#f4c41e" d="M 43.5,6.5 C 44.791,6.26269 45.791,6.59603 46.5,7.5C 48.1667,9.83333 50.1667,11.8333 52.5,13.5C 53.4501,32.8062 53.7834,52.1395 53.5,71.5C 52.8333,71.8333 52.1667,72.1667 51.5,72.5C 47.8333,72.5 44.1667,72.5 40.5,72.5C 38.5,72.5 36.5,72.5 34.5,72.5C 30.1667,72.5 25.8333,72.5 21.5,72.5C 21.3334,55.1635 21.5001,37.8301 22,20.5C 22.4396,18.1341 22.9396,15.8008 23.5,13.5C 25.5398,11.823 27.5398,10.1563 29.5,8.5C 29.8417,7.66175 30.5084,7.32842 31.5,7.5C 35.4659,6.83787 39.4659,6.50454 43.5,6.5 Z"/></g>
<g><path style="opacity:1" fill="#251e08" d="M 29.5,8.5 C 27.5398,10.1563 25.5398,11.823 23.5,13.5C 24.2678,10.4384 26.2678,8.77171 29.5,8.5 Z"/></g>
<g><path style="opacity:1" fill="#90c0e0" d="M 164.5,17.5 C 163.167,17.5 161.833,17.5 160.5,17.5C 160.5,24.5 160.5,31.5 160.5,38.5C 159.508,31.3524 159.175,24.0191 159.5,16.5C 161.415,16.2155 163.081,16.5489 164.5,17.5 Z"/></g>
<g><path style="opacity:1" fill="#fff6ea" d="M 164.5,17.5 C 164.5,24.5 164.5,31.5 164.5,38.5C 163.167,38.5 161.833,38.5 160.5,38.5C 160.5,31.5 160.5,24.5 160.5,17.5C 161.833,17.5 163.167,17.5 164.5,17.5 Z"/></g>
<g><path style="opacity:1" fill="#ddd2cf" d="M 66.5,18.5 C 68.5,18.5 70.5,18.5 72.5,18.5C 72.1558,25.8148 73.8224,25.9815 77.5,19C 80.1667,18.3333 82.8333,18.3333 85.5,19C 83.5394,21.9628 81.206,24.6294 78.5,27C 81.1667,30.6667 83.8333,34.3333 86.5,38C 83.8333,38.6667 81.1667,38.6667 78.5,38C 77.3601,36.0266 76.0267,34.1933 74.5,32.5C 72.7175,34.0225 72.0508,36.0225 72.5,38.5C 70.5,38.5 68.5,38.5 66.5,38.5C 66.5,31.8333 66.5,25.1667 66.5,18.5 Z"/></g>
<g><path style="opacity:1" fill="#d8d4d4" d="M 92.5,22.5 C 96.115,22.2055 99.2816,23.2055 102,25.5C 102.499,29.8206 102.666,34.1539 102.5,38.5C 98.1524,38.9093 93.819,39.0759 89.5,39C 86.6483,36.8474 86.1483,34.3474 88,31.5C 91.0554,30.0859 94.2221,28.9193 97.5,28C 96.9747,27.3076 96.3081,26.8076 95.5,26.5C 93.1489,28.2289 90.4822,28.8956 87.5,28.5C 87.7492,25.2556 89.4159,23.2556 92.5,22.5 Z M 96.5,32.5 C 96.037,35.5688 94.7037,36.0688 92.5,34C 93.5634,32.8118 94.8967,32.3118 96.5,32.5 Z"/></g>
<g><path style="opacity:1" fill="#e0dadb" d="M 109.5,24.5 C 109.814,27.9466 110.648,31.2799 112,34.5C 112.483,33.552 112.649,32.552 112.5,31.5C 113.67,29.3498 114.67,27.0164 115.5,24.5C 117.045,23.5481 118.712,23.2148 120.5,23.5C 120.5,24.1667 120.5,24.8333 120.5,25.5C 119.771,29.6862 118.438,33.6862 116.5,37.5C 114.257,38.4742 111.924,38.8076 109.5,38.5C 109.245,36.0326 108.245,34.0326 106.5,32.5C 105.508,29.8619 104.508,27.1952 103.5,24.5C 105.636,23.2072 107.636,23.2072 109.5,24.5 Z"/></g>
<g><path style="opacity:1" fill="#3e5a9d" d="M 120.5,23.5 C 121.167,23.5 121.833,23.5 122.5,23.5C 122.5,27.5 122.5,31.5 122.5,35.5C 121.833,32.1667 121.167,28.8333 120.5,25.5C 120.5,24.8333 120.5,24.1667 120.5,23.5 Z"/></g>
<g><path style="opacity:1" fill="#e5ded5" d="M 122.5,23.5 C 124.167,23.5 125.833,23.5 127.5,23.5C 127.335,26.8499 127.502,30.1832 128,33.5C 129.333,34.8333 130.667,34.8333 132,33.5C 132.498,30.1832 132.665,26.8499 132.5,23.5C 134.5,23.5 136.5,23.5 138.5,23.5C 138.5,28.5 138.5,33.5 138.5,38.5C 133.828,39.0027 129.161,39.1694 124.5,39C 123.177,38.1841 122.511,37.0174 122.5,35.5C 122.5,31.5 122.5,27.5 122.5,23.5 Z"/></g>
<g><path style="opacity:1" fill="#e8ecef" d="M 154.5,23.5 C 156.242,28.3077 156.909,33.3077 156.5,38.5C 155.167,38.5 153.833,38.5 152.5,38.5C 153.08,34.351 152.414,30.6843 150.5,27.5C 149.391,27.5569 148.391,27.8902 147.5,28.5C 145.598,31.3373 144.931,34.6707 145.5,38.5C 143.833,38.5 142.167,38.5 140.5,38.5C 140.5,33.5 140.5,28.5 140.5,23.5C 145.067,24.3648 149.733,24.3648 154.5,23.5 Z"/></g>
<g><path style="opacity:1" fill="#ded6e0" d="M 166.5,23.5 C 168.5,23.5 170.5,23.5 172.5,23.5C 172.335,26.8499 172.502,30.1832 173,33.5C 174.333,34.8333 175.667,34.8333 177,33.5C 177.498,30.1832 177.665,26.8499 177.5,23.5C 179.5,23.5 181.5,23.5 183.5,23.5C 183.5,28.5 183.5,33.5 183.5,38.5C 180.133,38.4571 176.799,38.7904 173.5,39.5C 170.426,39.5501 168.259,38.2168 167,35.5C 166.501,31.5138 166.334,27.5138 166.5,23.5 Z"/></g>
<g><path style="opacity:1" fill="#2e260b" d="M 23.5,13.5 C 22.9396,15.8008 22.4396,18.1341 22,20.5C 21.5001,37.8301 21.3334,55.1635 21.5,72.5C 25.8333,72.5 30.1667,72.5 34.5,72.5C 34.5,78.1667 34.5,83.8333 34.5,89.5C 33.5119,84.3595 33.1786,79.0262 33.5,73.5C 29.1667,73.5 24.8333,73.5 20.5,73.5C 20.3334,54.8304 20.5001,36.1637 21,17.5C 21.2004,15.6803 22.0337,14.347 23.5,13.5 Z"/></g>
<g><path style="opacity:1" fill="#c2824a" d="M 109.5,24.5 C 110.677,26.6794 111.677,29.0128 112.5,31.5C 112.649,32.552 112.483,33.552 112,34.5C 110.648,31.2799 109.814,27.9466 109.5,24.5 Z"/></g>
<g><path style="opacity:1" fill="#3da3d8" d="M 150.5,27.5 C 152.414,30.6843 153.08,34.351 152.5,38.5C 151.77,34.9394 151.103,31.2728 150.5,27.5 Z"/></g>
<g><path style="opacity:1" fill="#bd7324" d="M 154.5,23.5 C 155.79,24.0577 156.623,25.0577 157,26.5C 157.812,30.6888 157.645,34.6888 156.5,38.5C 156.909,33.3077 156.242,28.3077 154.5,23.5 Z"/></g>
<g><path style="opacity:1" fill="#ba7413" d="M 147.5,28.5 C 146.903,31.9412 146.237,35.2746 145.5,38.5C 144.931,34.6707 145.598,31.3373 147.5,28.5 Z"/></g>
<g><path style="opacity:1" fill="#51430f" d="M 52.5,13.5 C 53.2679,14.2625 53.7679,15.2625 54,16.5C 54.8288,35.0046 54.6621,53.338 53.5,71.5C 53.7834,52.1395 53.4501,32.8062 52.5,13.5 Z"/></g>
<g><path style="opacity:1" fill="#4072aa" d="M 106.5,32.5 C 108.245,34.0326 109.245,36.0326 109.5,38.5C 107.755,36.9674 106.755,34.9674 106.5,32.5 Z"/></g>
<g><path style="opacity:1" fill="#e3d9d6" d="M 66.5,50.5 C 71.5111,50.3341 76.5111,50.5007 81.5,51C 84.8524,53.2017 86.5191,56.3684 86.5,60.5C 86.5366,64.5947 84.8699,67.7613 81.5,70C 76.5111,70.4993 71.5111,70.6659 66.5,70.5C 66.5,63.8333 66.5,57.1667 66.5,50.5 Z M 72.5,54.5 C 77.155,53.8193 79.8217,55.8193 80.5,60.5C 79.8217,65.1807 77.155,67.1807 72.5,66.5C 72.5,62.5 72.5,58.5 72.5,54.5 Z"/></g>
<g><path style="opacity:1" fill="#dad9da" d="M 104.5,60.5 C 104.007,62.8056 103.674,65.139 103.5,67.5C 103.423,68.7498 102.756,69.5831 101.5,70C 89.7765,72.9342 85.6098,68.7676 89,57.5C 92.9331,55.5223 97.0998,55.0223 101.5,56C 103.376,56.9184 104.376,58.4184 104.5,60.5 Z M 94.5,59.5 C 99.3276,59.3852 100.661,61.5519 98.5,66C 93.5705,66.427 92.2372,64.2604 94.5,59.5 Z"/></g>
<g><path style="opacity:1" fill="#e3dada" d="M 127.5,69.5 C 126.167,65.1667 126.167,60.8333 127.5,56.5C 130.287,55.5233 133.287,55.19 136.5,55.5C 136.5,53.5 136.5,51.5 136.5,49.5C 138.5,49.5 140.5,49.5 142.5,49.5C 142.5,56.5 142.5,63.5 142.5,70.5C 137.305,70.8205 132.305,70.4872 127.5,69.5 Z M 131.5,59.5 C 134.93,58.7553 136.597,60.0886 136.5,63.5C 135.695,67.5141 133.861,68.1807 131,65.5C 130.322,63.4024 130.489,61.4024 131.5,59.5 Z"/></g>
<g><path style="opacity:1" fill="#dcd7d3" d="M 144.5,55.5 C 146.5,55.5 148.5,55.5 150.5,55.5C 150.335,58.8499 150.502,62.1832 151,65.5C 152.333,66.8333 153.667,66.8333 155,65.5C 155.498,62.1832 155.665,58.8499 155.5,55.5C 157.5,55.5 159.5,55.5 161.5,55.5C 161.5,60.5 161.5,65.5 161.5,70.5C 156.828,71.0027 152.161,71.1694 147.5,71C 146.299,70.0975 145.465,68.9308 145,67.5C 144.501,63.5138 144.334,59.5138 144.5,55.5 Z"/></g>
<g><path style="opacity:1" fill="#e4d7d3" d="M 163.5,55.5 C 167.167,55.5 170.833,55.5 174.5,55.5C 174.707,58.7454 173.207,60.7454 170,61.5C 169.502,64.4816 169.335,67.4816 169.5,70.5C 167.5,70.5 165.5,70.5 163.5,70.5C 163.5,65.5 163.5,60.5 163.5,55.5 Z"/></g>
<g><path style="opacity:1" fill="#d7ccd4" d="M 182.5,59.5 C 181.883,59.6107 181.383,59.944 181,60.5C 180.502,63.8168 180.335,67.1501 180.5,70.5C 178.833,70.5 177.167,70.5 175.5,70.5C 175.5,65.5 175.5,60.5 175.5,55.5C 184.227,54.6302 192.56,54.6302 200.5,55.5C 201.192,56.0253 201.692,56.6919 202,57.5C 202.499,61.8206 202.666,66.1539 202.5,70.5C 200.5,70.5 198.5,70.5 196.5,70.5C 196.5,66.8333 196.5,63.1667 196.5,59.5C 195.178,59.33 194.011,59.6634 193,60.5C 192.502,63.8168 192.335,67.1501 192.5,70.5C 190.5,70.5 188.5,70.5 186.5,70.5C 186.665,67.1501 186.498,63.8168 186,60.5C 184.989,59.6634 183.822,59.33 182.5,59.5 Z"/></g>
<g><path style="opacity:1" fill="#d8d4d4" d="M 209.5,54.5 C 213.115,54.2055 216.282,55.2055 219,57.5C 219.499,61.8206 219.666,66.1539 219.5,70.5C 215.152,70.9093 210.819,71.0759 206.5,71C 203.648,68.8474 203.148,66.3474 205,63.5C 208.055,62.0859 211.222,60.9193 214.5,60C 213.975,59.3076 213.308,58.8076 212.5,58.5C 210.149,60.2289 207.482,60.8956 204.5,60.5C 204.749,57.2556 206.416,55.2556 209.5,54.5 Z M 213.5,64.5 C 213.037,67.5688 211.704,68.0688 209.5,66C 210.563,64.8118 211.897,64.3118 213.5,64.5 Z"/></g>
<g><path style="opacity:1" fill="#dad0df" d="M 120.5,55.5 C 122.317,60.2408 122.984,65.2408 122.5,70.5C 120.833,70.5 119.167,70.5 117.5,70.5C 117.665,67.1501 117.498,63.8168 117,60.5C 114.91,59.2092 113.576,59.8758 113,62.5C 112.503,65.146 112.336,67.8127 112.5,70.5C 110.5,70.5 108.5,70.5 106.5,70.5C 106.5,65.5 106.5,60.5 106.5,55.5C 111.067,56.3648 115.733,56.3648 120.5,55.5 Z"/></g>
<g><path style="opacity:1" fill="#e2ae68" d="M 120.5,55.5 C 121.458,55.9528 122.292,56.6195 123,57.5C 123.814,62.0204 123.647,66.3537 122.5,70.5C 122.984,65.2408 122.317,60.2408 120.5,55.5 Z"/></g>
<g><path style="opacity:1" fill="#7c97c8" d="M 127.5,56.5 C 126.167,60.8333 126.167,65.1667 127.5,69.5C 124.697,66.7964 123.863,63.4631 125,59.5C 125.377,58.0577 126.21,57.0577 127.5,56.5 Z"/></g>
<g><path style="opacity:1" fill="#e9b670" d="M 182.5,59.5 C 181.974,63.312 181.307,66.9787 180.5,70.5C 180.335,67.1501 180.502,63.8168 181,60.5C 181.383,59.944 181.883,59.6107 182.5,59.5 Z"/></g>
<g><path style="opacity:1" fill="#db9b63" d="M 104.5,60.5 C 105.867,63.0118 105.534,65.3452 103.5,67.5C 103.674,65.139 104.007,62.8056 104.5,60.5 Z"/></g>
<g><path style="opacity:1" fill="#bc800e" d="M 34.5,72.5 C 36.5,72.5 38.5,72.5 40.5,72.5C 40.666,77.8437 40.4994,83.1771 40,88.5C 38.3005,89.4061 36.4672,89.7394 34.5,89.5C 34.5,83.8333 34.5,78.1667 34.5,72.5 Z"/></g>
<g><path style="opacity:1" fill="#221806" d="M 40.5,72.5 C 44.1667,72.5 47.8333,72.5 51.5,72.5C 48.4557,74.0114 45.1224,74.678 41.5,74.5C 41.6659,79.5111 41.4993,84.5111 41,89.5C 38.6162,91.952 36.4495,91.952 34.5,89.5C 36.4672,89.7394 38.3005,89.4061 40,88.5C 40.4994,83.1771 40.666,77.8437 40.5,72.5 Z"/></g>
</svg>
